<svg width="22" height="23" viewBox="0 0 22 23" fill="none" xmlns="http://www.w3.org/2000/svg">
<path d="M20.4398 11.0489L11.2498 20.2389C10.124 21.3648 8.59699 21.9973 7.0048 21.9973C5.41262 21.9973 3.88565 21.3648 2.7598 20.2389C1.63396 19.1131 1.00146 17.5861 1.00146 15.9939C1.00146 14.4018 1.63396 12.8748 2.7598 11.7489L11.9498 2.55894C12.7004 1.80838 13.7183 1.38672 14.7798 1.38672C15.8413 1.38672 16.8592 1.80838 17.6098 2.55894C18.3604 3.30951 18.782 4.32749 18.782 5.38894C18.782 6.4504 18.3604 7.46838 17.6098 8.21894L8.4098 17.4089C8.03452 17.7842 7.52553 17.9951 6.9948 17.9951C6.46407 17.9951 5.95508 17.7842 5.5798 17.4089C5.20452 17.0337 4.99369 16.5247 4.99369 15.9939C4.99369 15.4632 5.20452 14.9542 5.5798 14.5789L14.0698 6.09894" stroke="#AEB0B5" stroke-width="1.5" stroke-linecap="round" stroke-linejoin="round"/>
</svg>
