<svg width="20" height="20" viewBox="0 0 20 20" fill="none" xmlns="http://www.w3.org/2000/svg">
<path d="M18.4697 19.5303C18.7626 19.8232 19.2374 19.8232 19.5303 19.5303C19.8232 19.2374 19.8232 18.7626 19.5303 18.4697L18.4697 19.5303ZM15.1803 14.1197C14.8874 13.8268 14.4126 13.8268 14.1197 14.1197C13.8268 14.4126 13.8268 14.8874 14.1197 15.1803L15.1803 14.1197ZM16.25 9C16.25 13.0041 13.0041 16.25 9 16.25V17.75C13.8325 17.75 17.75 13.8325 17.75 9H16.25ZM9 16.25C4.99594 16.25 1.75 13.0041 1.75 9H0.25C0.25 13.8325 4.16751 17.75 9 17.75V16.25ZM1.75 9C1.75 4.99594 4.99594 1.75 9 1.75V0.25C4.16751 0.25 0.25 4.16751 0.25 9H1.75ZM9 1.75C13.0041 1.75 16.25 4.99594 16.25 9H17.75C17.75 4.16751 13.8325 0.25 9 0.25V1.75ZM19.5303 18.4697L15.1803 14.1197L14.1197 15.1803L18.4697 19.5303L19.5303 18.4697Z" fill="#AEB0B5"/>
</svg>
