<svg width="22" height="22" viewBox="0 0 22 22" fill="none" xmlns="http://www.w3.org/2000/svg">
<path d="M21 9C21 6.87827 20.1571 4.84344 18.6569 3.34315C17.1566 1.84285 15.1217 1 13 1V9H21Z" stroke="#144B8D" stroke-width="1.5" stroke-linecap="round" stroke-linejoin="round"/>
<path d="M9.5 4C7.81886 4 6.17547 4.49852 4.77766 5.43251C3.37984 6.3665 2.29037 7.69402 1.64703 9.24719C1.00368 10.8004 0.835355 12.5094 1.16333 14.1583C1.4913 15.8071 2.30085 17.3217 3.4896 18.5104C4.67834 19.6992 6.1929 20.5087 7.84174 20.8367C9.49057 21.1646 11.1996 20.9963 12.7528 20.353C14.306 19.7096 15.6335 18.6202 16.5675 17.2223C17.5015 15.8245 18 14.1811 18 12.5H9.5V4Z" stroke="#144B8D" stroke-width="1.5" stroke-linecap="round" stroke-linejoin="round"/>
</svg>
