<svg width="22" height="22" viewBox="0 0 22 22" fill="none" xmlns="http://www.w3.org/2000/svg">
<path d="M16.8288 12.7486V16.8288M16.8288 16.8288V20.9089M16.8288 16.8288H12.7486M16.8288 16.8288H20.9089M2.80492 1H7.44645C8.44328 1 9.25137 1.80809 9.25137 2.80492V7.44645C9.25137 8.44328 8.44328 9.25137 7.44645 9.25137H2.80492C1.80809 9.25137 1 8.44328 1 7.44645V2.80492C1 1.80809 1.80809 1 2.80492 1ZM14.5536 1H19.1951C20.1919 1 21 1.80809 21 2.80492V7.44645C21 8.44328 20.1919 9.25137 19.1951 9.25137H14.5536C13.5567 9.25137 12.7486 8.44328 12.7486 7.44645V2.80492C12.7486 1.80809 13.5567 1 14.5536 1ZM2.80492 12.7486H7.44645C8.44328 12.7486 9.25137 13.5567 9.25137 14.5536V19.1951C9.25137 20.1919 8.44328 21 7.44645 21H2.80492C1.80809 21 1 20.1919 1 19.1951V14.5536C1 13.5567 1.80809 12.7486 2.80492 12.7486Z" stroke="#144B8D" stroke-width="1.5" stroke-linecap="round" stroke-linejoin="round"/>
</svg>
