<svg width="21" height="20" viewBox="0 0 21 20" fill="none" xmlns="http://www.w3.org/2000/svg">
<path d="M6.42125 4.82001H2.85706C2.36242 4.82001 1.88821 5.01735 1.5396 5.36827V5.36827C1.19398 5.71618 1 6.18667 1 6.67707L1 10.603C1 11.0934 1.19398 11.5638 1.53959 11.9118V11.9118C1.88821 12.2627 2.36242 12.46 2.85706 12.46H6.42125M6.42125 4.82001L6.42125 12.46M6.42125 4.82001L17.8039 1.18209C18.1724 1.0643 18.5703 1.07705 18.9305 1.21817V1.21817C19.5756 1.47088 20 2.09295 20 2.78575V13.533C20 14.1729 19.6938 14.7741 19.1764 15.1505L19.1512 15.1688C18.6597 15.5262 18.0324 15.6408 17.4464 15.4803L7.82153 12.8436M6.42125 12.46L7.82153 12.8436M7.82153 12.8436L6 16.8085L5.43353 17.8541C4.77157 19.0759 3.05858 19.182 2.25089 18.0512V18.0512C1.79855 17.418 1.78318 16.5715 2.21222 15.9222L4.5 12.46" stroke="#AB9EC8" stroke-width="1.5"/>
</svg>
