<svg width="20" height="20" viewBox="0 0 20 20" fill="none" xmlns="http://www.w3.org/2000/svg">
<path d="M8.2346 15.6045H1.00046M12.0001 3.88001H19.2354M19.2353 15.6045C19.2353 17.1951 17.9459 18.4845 16.3553 18.4845C14.7647 18.4845 13.4753 17.1951 13.4753 15.6045C13.4753 14.0127 14.7647 12.7245 16.3553 12.7245C17.9459 12.7245 19.2353 14.0127 19.2353 15.6045ZM1 3.88C1 5.47177 2.28941 6.76 3.88 6.76C5.47059 6.76 6.76 5.47177 6.76 3.88C6.76 2.28941 5.47059 1 3.88 1C2.28941 1 1 2.28941 1 3.88Z" stroke="#AEB0B5" stroke-width="1.5" stroke-linecap="round" stroke-linejoin="round"/>
</svg>
