<svg width="20" height="22" viewBox="0 0 20 22" fill="none" xmlns="http://www.w3.org/2000/svg">
<path d="M1 17H0.25H1ZM1 5L1.75 5L1 5ZM6 6.25C5.58579 6.25 5.25 6.58579 5.25 7C5.25 7.41421 5.58579 7.75 6 7.75V6.25ZM10 7.75C10.4142 7.75 10.75 7.41421 10.75 7C10.75 6.58579 10.4142 6.25 10 6.25V7.75ZM6 10.25C5.58579 10.25 5.25 10.5858 5.25 11C5.25 11.4142 5.58579 11.75 6 11.75V10.25ZM14 11.75C14.4142 11.75 14.75 11.4142 14.75 11C14.75 10.5858 14.4142 10.25 14 10.25V11.75ZM6 14.25C5.58579 14.25 5.25 14.5858 5.25 15C5.25 15.4142 5.58579 15.75 6 15.75V14.25ZM14 15.75C14.4142 15.75 14.75 15.4142 14.75 15C14.75 14.5858 14.4142 14.25 14 14.25V15.75ZM5 1.75H15V0.25H5V1.75ZM18.25 5V17H19.75V5H18.25ZM15 20.25H5V21.75H15V20.25ZM1.75 17L1.75 5L0.250004 5L0.25 17H1.75ZM5 20.25C3.20508 20.25 1.75 18.7949 1.75 17H0.25C0.25 19.6234 2.37665 21.75 5 21.75V20.25ZM18.25 17C18.25 18.7949 16.7949 20.25 15 20.25V21.75C17.6234 21.75 19.75 19.6234 19.75 17H18.25ZM15 1.75C16.7949 1.75 18.25 3.20507 18.25 5H19.75C19.75 2.37665 17.6234 0.25 15 0.25V1.75ZM5 0.25C2.37665 0.25 0.250005 2.37665 0.250004 5L1.75 5C1.75 3.20507 3.20508 1.75 5 1.75V0.25ZM6 7.75H10V6.25H6V7.75ZM6 11.75H14V10.25H6V11.75ZM6 15.75H14V14.25H6V15.75Z" fill="#DD7878"/>
</svg>
