<svg width="22" height="22" viewBox="0 0 22 22" fill="none" xmlns="http://www.w3.org/2000/svg">
<path d="M11.25 11.4H12C12 10.9858 11.6642 10.65 11.25 10.65V11.4ZM12.26 13.33L12.6693 13.9585L12.6765 13.9537L12.26 13.33ZM15.15 11.4V10.65C15.0017 10.65 14.8568 10.694 14.7335 10.7763L15.15 11.4ZM6.39999 20.25C5.98578 20.25 5.64999 20.5858 5.64999 21C5.64999 21.4142 5.98578 21.75 6.39999 21.75V20.25ZM13.6 21.75C14.0142 21.75 14.35 21.4142 14.35 21C14.35 20.5858 14.0142 20.25 13.6 20.25V21.75ZM10.75 17.4C10.75 16.9858 10.4142 16.65 10 16.65C9.58579 16.65 9.25 16.9858 9.25 17.4H10.75ZM9.25 21C9.25 21.4142 9.58579 21.75 10 21.75C10.4142 21.75 10.75 21.4142 10.75 21H9.25ZM17.4955 5.5C17.0813 5.5 16.7455 5.83579 16.7455 6.25C16.7455 6.66421 17.0813 7 17.4955 7V5.5ZM17.5045 7C17.9187 7 18.2545 6.66421 18.2545 6.25C18.2545 5.83579 17.9187 5.5 17.5045 5.5V7ZM14.6957 5.5C14.2815 5.5 13.9457 5.83579 13.9457 6.25C13.9457 6.66421 14.2815 7 14.6957 7V5.5ZM14.7047 7C15.1189 7 15.4547 6.66421 15.4547 6.25C15.4547 5.83579 15.1189 5.5 14.7047 5.5V7ZM11.8954 5.5C11.4812 5.5 11.1454 5.83579 11.1454 6.25C11.1454 6.66421 11.4812 7 11.8954 7V5.5ZM11.9044 7C12.3186 7 12.6544 6.66421 12.6544 6.25C12.6544 5.83579 12.3186 5.5 11.9044 5.5V7ZM18.25 11.2V12.9H19.75V11.2H18.25ZM18.25 12.9C18.25 14.3321 17.8446 15.2315 17.2522 15.7817C16.6496 16.3412 15.735 16.65 14.5 16.65V18.15C15.965 18.15 17.3004 17.7839 18.2728 16.8809C19.2554 15.9685 19.75 14.618 19.75 12.9H18.25ZM14.5 16.65H5.5V18.15H14.5V16.65ZM5.5 16.65C4.26497 16.65 3.35035 16.3412 2.74784 15.7817C2.15538 15.2315 1.75 14.3321 1.75 12.9H0.25C0.25 14.618 0.744615 15.9685 1.72716 16.8809C2.69965 17.7839 4.03503 18.15 5.5 18.15V16.65ZM1.75 12.9V7.5H0.25V12.9H1.75ZM1.75 7.5C1.75 6.06795 2.15538 5.16848 2.74784 4.61835C3.35035 4.05887 4.26497 3.75 5.5 3.75V2.25C4.03503 2.25 2.69965 2.61613 1.72716 3.51915C0.744615 4.43152 0.25 5.78205 0.25 7.5H1.75ZM5.5 3.75H8.2V2.25H5.5V3.75ZM7.49038 2.75723C7.33218 3.21966 7.25 3.72205 7.25 4.25H8.75C8.75 3.87795 8.80782 3.54034 8.90962 3.24277L7.49038 2.75723ZM7.25 4.25V8.15002H8.75V4.25H7.25ZM7.25 8.15002C7.25 9.28633 7.62752 10.3082 8.35967 11.0403L9.42033 9.97968C9.01248 9.57183 8.75 8.95372 8.75 8.15002H7.25ZM8.35967 11.0403C9.09181 11.7725 10.1137 12.15 11.25 12.15V10.65C10.4463 10.65 9.82819 10.3875 9.42033 9.97968L8.35967 11.0403ZM10.5 11.4V12.79H12V11.4H10.5ZM10.5 12.79C10.5 13.9079 11.7508 14.5565 12.6693 13.9585L11.8507 12.7015C11.8639 12.6929 11.8842 12.686 11.9054 12.6856C11.924 12.6852 11.9377 12.6897 11.9473 12.6948C11.9569 12.6999 11.9695 12.7096 11.9808 12.7274C11.9937 12.7478 12 12.7714 12 12.79H10.5ZM12.6765 13.9537L15.5665 12.0237L14.7335 10.7763L11.8435 12.7062L12.6765 13.9537ZM15.15 12.15H17.75V10.65H15.15V12.15ZM17.75 12.15C18.278 12.15 18.7804 12.0677 19.2428 11.9096L18.7572 10.4903C18.4596 10.5922 18.122 10.65 17.75 10.65V12.15ZM20.25 4.25V8.15002H21.75V4.25H20.25ZM20.25 8.15002C20.25 9.36028 19.6558 10.1714 18.7492 10.4931L19.2508 11.9068C20.8242 11.3485 21.75 9.91977 21.75 8.15002H20.25ZM8.90682 3.25081C9.22853 2.34418 10.0397 1.75 11.25 1.75V0.25C9.48028 0.25 8.05147 1.17582 7.49318 2.74919L8.90682 3.25081ZM11.25 1.75H17.75V0.25H11.25V1.75ZM17.75 1.75C18.5546 1.75 19.1668 2.01491 19.5759 2.42408C19.9851 2.83325 20.25 3.44544 20.25 4.25H21.75C21.75 3.10456 21.3649 2.09175 20.6366 1.36342C19.9082 0.635085 18.8954 0.25 17.75 0.25V1.75ZM6.39999 21.75H13.6V20.25H6.39999V21.75ZM9.25 17.4V21H10.75V17.4H9.25ZM17.4955 7H17.5045V5.5H17.4955V7ZM14.6957 7H14.7047V5.5H14.6957V7ZM11.8954 7H11.9044V5.5H11.8954V7Z" fill="#658EB4"/>
</svg>
